<svg xmlns="http://www.w3.org/2000/svg" width="69" height="69" viewBox="0 0 69 69">
    <g fill="none" fill-rule="evenodd" opacity=".32">
        <path fill="#020303" d="M33.656 34.58H11.21a.74.74 0 0 1 0-1.479h22.447a.74.74 0 0 1 0 1.48"/>
        <path stroke="#020303" d="M33.656 34.58H11.21a.74.74 0 0 1 0-1.479h22.447a.74.74 0 0 1 0 1.48z"/>
        <path fill="#020303" d="M25.943 43.992H11.176a.74.74 0 0 1 0-1.48h14.767a.74.74 0 0 1 0 1.48"/>
        <path stroke="#020303" d="M25.943 43.992H11.176a.74.74 0 0 1 0-1.48h14.767a.74.74 0 0 1 0 1.48z"/>
        <path fill="#020303" d="M41.592 25.603H11.255a.74.74 0 0 1 0-1.48h30.337a.74.74 0 0 1 0 1.48"/>
        <path stroke="#020303" d="M41.592 25.603H11.255a.74.74 0 0 1 0-1.48h30.337a.74.74 0 0 1 0 1.48z"/>
        <path fill="#020303" d="M23.384 53.088h-12.2a.74.74 0 0 1 0-1.48h12.2a.74.74 0 1 1 0 1.48"/>
        <path stroke="#020303" d="M23.384 53.088h-12.2a.74.74 0 0 1 0-1.48h12.2a.74.74 0 1 1 0 1.48z"/>
        <path fill="#020303" d="M49.522 67.642H3.61a2.224 2.224 0 0 1-2.22-2.221V19.543c0-1.604.663-3.163 1.818-4.275L16.03 2.93a5.9 5.9 0 0 1 4.112-1.656h29.38c1.224 0 2.22.996 2.22 2.22v15.797a.74.74 0 0 1-1.478 0V3.496a.743.743 0 0 0-.742-.742h-29.38a4.432 4.432 0 0 0-3.086 1.243L4.234 16.334a4.475 4.475 0 0 0-1.366 3.21V65.42c0 .409.334.742.742.742h45.912a.743.743 0 0 0 .742-.742V35.649a.74.74 0 1 1 1.479 0v29.772a2.224 2.224 0 0 1-2.221 2.221"/>
        <path stroke="#020303" d="M49.522 67.642H3.61a2.224 2.224 0 0 1-2.22-2.221V19.543c0-1.604.663-3.163 1.818-4.275L16.03 2.93a5.9 5.9 0 0 1 4.112-1.656h29.38c1.224 0 2.22.996 2.22 2.22v15.797a.74.74 0 0 1-1.478 0V3.496a.743.743 0 0 0-.742-.742h-29.38a4.432 4.432 0 0 0-3.086 1.243L4.234 16.334a4.475 4.475 0 0 0-1.366 3.21V65.42c0 .409.334.742.742.742h45.912a.743.743 0 0 0 .742-.742V35.649a.74.74 0 1 1 1.479 0v29.772a2.224 2.224 0 0 1-2.221 2.221z"/>
        <path fill="#020303" d="M16.595 19.075H2.5a.74.74 0 0 1 0-1.48h14.096c.613 0 1.11-.498 1.11-1.111V2.63a.74.74 0 0 1 1.48 0v13.853a2.594 2.594 0 0 1-2.59 2.59"/>
        <path stroke="#020303" d="M16.595 19.075H2.5a.74.74 0 0 1 0-1.48h14.096c.613 0 1.11-.498 1.11-1.111V2.63a.74.74 0 0 1 1.48 0v13.853a2.594 2.594 0 0 1-2.59 2.59z"/>
        <path fill="#020303" d="M59.954 11.92c-.346 0-.67.137-.91.386L31.932 40.358a6.307 6.307 0 0 0-1.488 2.52l-2.501 8.132a.02.02 0 0 0 .005.02c.009.01.015.008.02.006L36.2 48.54a6.297 6.297 0 0 0 2.693-1.646l27.015-27.95a1.267 1.267 0 0 0-.03-1.79l-5.044-4.877a1.26 1.26 0 0 0-.879-.356M27.963 52.517a1.49 1.49 0 0 1-1.063-.442 1.497 1.497 0 0 1-.37-1.5l2.5-8.132a7.799 7.799 0 0 1 1.838-3.114l27.113-28.051a2.723 2.723 0 0 1 1.973-.837c.715 0 1.393.273 1.907.77l5.045 4.879a2.75 2.75 0 0 1 .065 3.881l-27.016 27.95a7.769 7.769 0 0 1-3.327 2.034l-8.23 2.497c-.14.043-.287.065-.435.065"/>
        <path stroke="#020303" d="M59.954 11.92c-.346 0-.67.137-.91.386L31.932 40.358a6.307 6.307 0 0 0-1.488 2.52l-2.501 8.132a.02.02 0 0 0 .005.02c.009.01.015.008.02.006L36.2 48.54a6.297 6.297 0 0 0 2.693-1.646l27.015-27.95a1.267 1.267 0 0 0-.03-1.79l-5.044-4.877a1.26 1.26 0 0 0-.879-.356zM27.963 52.517a1.49 1.49 0 0 1-1.063-.442 1.497 1.497 0 0 1-.37-1.5l2.5-8.132a7.799 7.799 0 0 1 1.838-3.114l27.113-28.051a2.723 2.723 0 0 1 1.973-.837c.715 0 1.393.273 1.907.77l5.045 4.879a2.75 2.75 0 0 1 .065 3.881l-27.016 27.95a7.769 7.769 0 0 1-3.327 2.034l-8.23 2.497c-.14.043-.287.065-.435.065z"/>
        <path fill="#020303" d="M35.927 43.707a.74.74 0 0 1-.532-1.254l25.023-25.898a.74.74 0 1 1 1.063 1.028L36.46 43.482a.739.739 0 0 1-.532.225"/>
        <path stroke="#020303" d="M35.927 43.707a.74.74 0 0 1-.532-1.254l25.023-25.898a.74.74 0 1 1 1.063 1.028L36.46 43.482a.739.739 0 0 1-.532.225z"/>
        <path fill="#020303" d="M31.57 51.063a.74.74 0 0 1-.535-.229l-2.92-3.055a.739.739 0 1 1 1.07-1.023l2.92 3.056a.74.74 0 0 1-.535 1.251"/>
        <path stroke="#020303" d="M31.57 51.063a.74.74 0 0 1-.535-.229l-2.92-3.055a.739.739 0 1 1 1.07-1.023l2.92 3.056a.74.74 0 0 1-.535 1.251z"/>
    </g>
</svg>
