<svg xmlns="http://www.w3.org/2000/svg" style="width:0; height:0; visibility:hidden;">
    <symbol id="icon-angle-arrow" viewBox="0 0 208 119">
      <path fill-rule="evenodd" clip-rule="evenodd" d="M8 117V3.6L12.6 8 14 6.7 8.4 1.3 7 0 5.6 1.3 0 6.7 1.4 8 6 3.6V119h202v-2z"/>
    </symbol>
    <symbol id="icon-arrow-down" viewBox="0 0 9 6">
      <path fill-rule="evenodd" clip-rule="evenodd" d="M9 1.4L5.9 4.6 4.5 6 3.1 4.6 0 1.4 1.4 0l3.1 3.2L7.6 0 9 1.4z"/>
    </symbol>
    <symbol id="icon-arrow-left" viewBox="0 0 7 11">
      <path fill-rule="evenodd" clip-rule="evenodd" d="M5.6 11L1.4 6.9 0 5.5l1.4-1.4L5.6 0 7 1.4 2.8 5.5 7 9.6 5.6 11z"/>
    </symbol>
    <symbol id="icon-arrow2-right" viewBox="0 0 35 14">
      <path fill-rule="evenodd" clip-rule="evenodd" d="M33.7 8.4L28.3 14 27 12.6 31.4 8H0V6h31.4L27 1.4 28.3 0l5.3 5.6L35 7l-1.3 1.4z"/>
    </symbol>
    <symbol id="icon-book-workshop" viewBox="0 0 33 33">
      <path fill-rule="evenodd" clip-rule="evenodd" d="M16.5 0C7.387 0 0 7.387 0 16.5S7.387 33 16.5 33 33 25.613 33 16.5 25.613 0 16.5 0zm0 30.996c-8.006 0-14.496-6.49-14.496-14.496S8.494 2.004 16.5 2.004 30.996 8.494 30.996 16.5 24.506 30.996 16.5 30.996zm-2.483-11.395l-3.612-3.612-1.402 1.401 4.607 4.607.381-.38.381.381 9.626-9.626-1.375-1.375-8.606 8.604z"/>
    </symbol>
    <symbol id="icon-calendar" viewBox="0 0 18 18">
      <path fill-rule="evenodd" clip-rule="evenodd" d="M14 2V0h-2v2H6V0H4v2H0v16h18V2h-4zm2 14H2V4h2v2h2V4h6v2h2V4h2v12zM4 10h2V8H4v2zm0 4h2v-2H4v2zm4-4h2V8H8v2zm0 4h2v-2H8v2zm4-4h2V8h-2v2zm0 4h2v-2h-2v2z"/>
    </symbol>
    <symbol id="icon-calendar2" viewBox="0 0 41 41">
      <path fill-rule="evenodd" clip-rule="evenodd" d="M20.5 0C9.178 0 0 9.178 0 20.5S9.178 41 20.5 41 41 31.822 41 20.5 31.822 0 20.5 0zm0 39C10.283 39 2 30.717 2 20.5S10.283 2 20.5 2 39 10.283 39 20.5 30.717 39 20.5 39zM26 12h-2v2h-7v-2h-2v2h-4v15h19V14h-4v-2zm2 4v11H13V16h2v1h2v-1h7v1h2v-1h2zm-13 5h2v-2h-2v2zm0 4h2v-2h-2v2zm3-4h2v-2h-2v2zm0 4h2v-2h-2v2zm3-4h2v-2h-2v2zm0 4h2v-2h-2v2zm3-4h2v-2h-2v2zm0 4h2v-2h-2v2z"/>
    </symbol>
    <symbol id="icon-download" viewBox="0 0 12 18">
      <path fill-rule="evenodd" clip-rule="evenodd" d="M4.6 16.7L0 12.3 1.4 11 5 14.4V0h2v14.4l3.6-3.4 1.4 1.3-4.6 4.3L6 18l-1.4-1.3z"/>
    </symbol>
    <symbol id="icon-facebook" viewBox="0 0 8 16">
      <path d="M0 5h2V3c0-1.3.3-3 3-3h3v2H6c-1.5 0-2 .6-2 2v1h3L6 7H4v9H2V7H0V5z"/>
    </symbol>
    <symbol id="icon-frequency" viewBox="0 0 41 41">
      <path fill-rule="evenodd" clip-rule="evenodd" d="M30.024 11.784l-1.712 1.711A10.453 10.453 0 0 0 20.5 10c-5.526 0-10.046 4.272-10.459 9.692h2.342a8.158 8.158 0 0 1 8.117-7.35 8.133 8.133 0 0 1 6.155 2.811l-1.948 1.948a.572.572 0 0 0 .404.976H31v-5.889a.572.572 0 0 0-.976-.404zM20.5 28.658a8.136 8.136 0 0 1-6.155-2.811l1.948-1.948a.572.572 0 0 0-.404-.976H10v5.888c0 .51.616.765.976.404l1.712-1.712A10.444 10.444 0 0 0 20.5 31c5.526 0 10.045-4.272 10.459-9.692h-2.342a8.158 8.158 0 0 1-8.117 7.35zM20.5 0C9.178 0 0 9.178 0 20.5S9.178 41 20.5 41 41 31.822 41 20.5 31.822 0 20.5 0zm0 39C10.283 39 2 30.717 2 20.5S10.283 2 20.5 2 39 10.283 39 20.5 30.717 39 20.5 39z"/>
    </symbol>
    <symbol id="icon-google-plus" viewBox="0 0 22 14">
      <path fill-rule="evenodd" clip-rule="evenodd" d="M7 6v2.4h4c-.2 1-1.2 3-4 3-2.4 0-4.3-2-4.3-4.4S4.6 2.6 7 2.6c1.4 0 2.3.6 2.8 1.1l1.9-1.8C10.5.7 8.9 0 7 0 3.1 0 0 3.1 0 7s3.1 7 7 7c4 0 6.7-2.8 6.7-6.8 0-.5 0-.8-.1-1.2H7zm13 0V4h-2v2h-2v2h2v2h2V8h2V6h-2z"/>
    </symbol>
    <symbol id="icon-info" viewBox="0 0 33 33">
      <path fill-rule="evenodd" clip-rule="evenodd" d="M16.5 22a1.5 1.5 0 1 0 .001 3.001A1.5 1.5 0 0 0 16.5 22zm0-14a2.5 2.5 0 0 0-2.45 3H14l1 8h.092c.207.581.756 1 1.408 1 .652 0 1.202-.419 1.408-1H18l1-8h-.05a2.501 2.501 0 0 0-2.45-3zm0-8C7.387 0 0 7.387 0 16.5S7.387 33 16.5 33 33 25.613 33 16.5 25.613 0 16.5 0zm0 30.996c-8.006 0-14.496-6.49-14.496-14.496S8.494 2.004 16.5 2.004 30.996 8.494 30.996 16.5 24.506 30.996 16.5 30.996z"/>
    </symbol>
    <symbol id="icon-input-info" viewBox="0 0 20 20">
      <path fill-rule="evenodd" clip-rule="evenodd" d="M10 0C4.5 0 0 4.5 0 10s4.5 10 10 10 10-4.5 10-10S15.5 0 10 0zm0 18c-4.4 0-8-3.6-8-8s3.6-8 8-8 8 3.6 8 8-3.6 8-8 8zm-1-3h2V9H9v6zm0-8h2V5H9v2z"/>
    </symbol>
    <symbol id="icon-instagram" viewBox="0 0 16 16">
      <path fill-rule="evenodd" clip-rule="evenodd" d="M11.8 0H4.2C3 0 1.9.5 1.2 1.3.5 2 0 3 0 4.2v7.6C0 14.1 1.9 16 4.2 16h7.6c2.3 0 4.2-1.9 4.2-4.2V4.2C16 1.9 14.1 0 11.8 0zM14 10.9c0 1.7-1.4 3.1-3.1 3.1H5.1C3.4 14 2 12.6 2 10.9V5.1c0-.8.3-1.6.9-2.1.6-.6 1.4-1 2.3-1h5.7C12.6 2 14 3.4 14 5.1v5.8zM8 4C5.8 4 4 5.8 4 8s1.8 4 4 4 4-1.8 4-4-1.8-4-4-4zm0 6c-1.1 0-2-.9-2-2s.9-2 2-2 2 .9 2 2-.9 2-2 2zm4-7c-.6 0-1 .4-1 1s.4 1 1 1 1-.4 1-1-.4-1-1-1z"/>
    </symbol>
    <symbol id="icon-man-1" viewBox="0 0 133.8 134.2">
      <path fill="#CCC4E1" d="M87.8 96.2c-4.6 0-8.4 3.8-8.4 8.4 0 4.6 3.8 8.4 8.4 8.4 4.6 0 8.4-3.8 8.4-8.4.1-4.6-3.7-8.4-8.4-8.4z"/><path d="M87.8 114.2c-5.2 0-9.5-4.3-9.5-9.5s4.3-9.5 9.5-9.5 9.5 4.3 9.5 9.5-4.2 9.5-9.5 9.5zm0-17c-4.1 0-7.5 3.4-7.5 7.5s3.4 7.5 7.5 7.5 7.5-3.4 7.5-7.5c0-4.2-3.3-7.5-7.5-7.5z"/><path fill="#6B6C6D" d="M47.6 20s10.3.7 13.3-.3 8.6-2.8 10.4-4.5 3.1-2.7 3.1-2.7 1.6 2.9 3 3.5c1.4.6 5.6 4.3 7.6 4.3s.8-1.1.8-1.1l-1.6-6.7-2.6-4.8L77.8 4 72 1.5l-8-.7-5.8 1.4-3.6 2-3.1 3.2-2.4 3.4-.8 4.5-.7 4.7z"/><path fill="#BBE5F1" d="M8.9 107.1h37.6V80.5l1.3-2.9 2.4-1.6h63.5l-3.3-4.7-4.4-3.6-6.7-4.5-7.4-3.4-5.3-1.8-4.4-.9-1.7-1.4-14.1 9-14.2-9-3.2 1.4-3.1.8-9.8 3.9-7.3 4.2-8.3 7.7-4.8 6.4-4.7 11L8.9 99z"/><path d="M66.4 45.8c1.9 0 3.7-1 4.5-2.6.2-.5.1-1.1-.4-1.3-.5-.2-1.1-.1-1.3.4-.5.9-1.5 1.6-2.7 1.6-1.2 0-2.3-.6-2.7-1.6-.2-.5-.8-.7-1.3-.4-.5.2-.7.9-.4 1.3.6 1.5 2.4 2.6 4.3 2.6zm-9.6-17.6c-.8 0-1.5.7-1.5 1.5s.7 1.5 1.5 1.5 1.5-.7 1.5-1.5c0-.9-.7-1.5-1.5-1.5zm19 0c-.8 0-1.5.7-1.5 1.5s.7 1.5 1.5 1.5 1.5-.7 1.5-1.5c0-.9-.6-1.5-1.5-1.5zm-16.2-1.9c.5.2 1.1-.1 1.2-.7.2-.5-.1-1.1-.7-1.2-1.3-.4-2.6-.5-4-.5-1.3.1-2.6.4-3.9.9-.5.2-.8.8-.5 1.3.2.4.5.6.9.6.1 0 .3 0 .4-.1 1-.4 2.1-.7 3.2-.7 1.2 0 2.3.1 3.4.4zm73.2 79.8h-2.5V81.5c0-3.5-2.8-6.4-6.3-6.4h-9.1c-10-12.9-24.7-17.4-30.8-18.7-1.7-.4-2.9-1.5-3.4-3.1-.2-.8-.4-3.4-.3-5 2.8-3.1 4.9-7.2 5.8-12.3 0-.1.1-.2.2-.2 2.7-.5 4.7-3 4.7-6s-2-5.5-4.8-6c-.1 0-.1-.1-.2-.1.1-1.6.8-11.3-5.1-17.8C77.8 2 72.8 0 66.4 0S55 2 51.5 5.8c-4 4.4-4.9 10.3-5.1 14.2v.1c-.1 1.7 0 3 .1 3.5 0 .1-.1.1-.2.1-2.8.5-4.7 3-4.7 6s2 5.5 4.7 6c.1 0 .2.1.2.2 1 5.1 3 9.3 5.9 12.3.1 1.6 0 4.2-.3 5-.4 1.5-1.7 2.7-3.4 3.1C39.2 58.5 8.5 68.2 8 106.1H0v2h45.3v19.7c0 3.5 2.8 6.4 6.3 6.4H124c3.5 0 6.3-2.9 6.3-6.4v-19.7h2.5c.6 0 1-.4 1-1 0-.5-.5-1-1-1zM80.6 56.8c.8.8 1.9 1.3 3.1 1.6.3.1.6.1 1 .2L72.5 71.1 67.8 65l12.8-8.2zm-14.2 6.8l-12.9-8.4c.2-.4.4-.9.6-1.3.2-.7.3-2.2.4-3.7 3.3 2.6 7.4 4.1 12 4.1 4.7 0 8.8-1.4 12-4.1 0 1.4.2 2.9.4 3.7.1.5.3.9.6 1.3l-13.1 8.4zM53 7.2C56 3.7 60.5 2 66.4 2c5.8 0 10.3 1.7 13.4 5.2 3.2 3.5 4.2 8.3 4.5 11.7-4.9-.9-8.9-7.3-9-7.3-.2-.3-.5-.5-.8-.5-.3 0-.6.1-.8.4-5.9 8.1-21.2 7.9-25.2 7.7.2-3.5 1.2-8.4 4.5-12zm-4.6 28.4c-.2-.9-.9-1.6-1.8-1.8-1.8-.3-3.1-2-3.1-4s1.3-3.7 3.1-4c.9-.2 1.6-.9 1.8-1.8v-.4s-.1-1-.1-2.4c.7 0 1.7.1 3 .1 6 0 17.3-1 23.1-7.5 1.6 2.1 5.4 6.6 10 7.2 0 1.6-.1 2.6-.1 2.7v.4c.2.9.9 1.6 1.8 1.8 1.8.3 3.1 2 3.1 4s-1.3 3.7-3.1 4c-.9.2-1.6.9-1.8 1.8-2.1 10.6-8.6 16.7-18 16.7-9.3-.1-15.8-6.2-17.9-16.8zm.7 22.8c1.2-.3 2.2-.8 3.1-1.6L64.9 65l-4.6 6.1-12.2-12.5c.4-.1.7-.1 1-.2zm-3.8 23.1v24.6H30.4l1-14c0-.6-.4-1-.9-1.1-.5 0-1 .4-1.1.9l-1 14.1H10c.5-32.9 24.6-43.7 36-46.9l13.7 14.2h.1l.1.1s.1.1.2.1c0 0 .1 0 .1.1.1 0 .2.1.3.1.1 0 .3 0 .4-.1l.1-.1c.1 0 .1-.1.2-.1v-.1h.1l5.2-6.8 5.2 6.8h.1v.1s.1 0 .1.1c.1 0 .1.1.2.1s.1 0 .2.1H72.9c.1 0 .1-.1.2-.1 0 0 .1 0 .1-.1v-.1h.1L87 59.2c6.6 1.9 17.3 6.3 25.4 16H51.7c-3.5 0-6.4 2.8-6.4 6.3zm83 46.3c0 2.4-1.9 4.4-4.3 4.4H51.7c-2.4 0-4.3-2-4.3-4.4V81.5c0-2.4 1.9-4.4 4.3-4.4H124c2.4 0 4.3 2 4.3 4.4v46.3zM72.8 26.3c1.1-.3 2.2-.4 3.3-.4 1.1.1 2.2.3 3.2.7.1.1.3.1.4.1.4 0 .8-.2.9-.6.2-.5 0-1.1-.5-1.3-1.2-.5-2.5-.8-3.9-.9-1.3-.1-2.7.1-4 .5-.5.2-.8.7-.7 1.2.2.6.8.9 1.3.7z"/>
    </symbol>
    <symbol id="icon-play" viewBox="0 0 64 64">
      <path d="M32 0C14.327 0 0 14.327 0 32s14.327 32 32 32 32-14.327 32-32S49.673 0 32 0zm0 62C15.432 62 2 48.568 2 32 2 15.431 15.432 2 32 2s30 13.431 30 30c0 16.568-13.432 30-30 30zm-6.001-20.003l15.991-9.998-15.991-9.998v19.996z"/>
    </symbol>
    <symbol id="icon-plus" viewBox="0 0 8 8">
      <path fill-rule="evenodd" clip-rule="evenodd" d="M8 3H5V0H3v3H0v2h3v3h2V5h3z"/>
    </symbol>
    <symbol id="icon-twitter" viewBox="0 0 17 14">
      <path d="M17 1.7c-.6.3-1.3.5-2 .6.7-.4 1.3-1.1 1.5-2-.7.4-1.4.7-2.2.9C13.7.4 12.8 0 11.8 0c-2 0-3.5 1.6-3.5 3.5 0 .3 0 .5.1.8C5.5 4.2 2.9 2.8 1.2.6.9 1.2.7 1.8.7 2.4c0 1.2.6 2.3 1.5 2.9-.6 0-1.1-.2-1.6-.4C.6 6.6 1.8 8 3.4 8.4c-.2.1-.5.1-.8.1-.2 0-.4 0-.7-.1.4 1.4 1.7 2.4 3.3 2.4-1.2.9-2.7 1.5-4.3 1.5H.1c1.5 1 3.4 1.6 5.3 1.6 6.4 0 9.9-5.4 9.9-10v-.5c.6-.4 1.2-1 1.7-1.7"/>
    </symbol>
    <symbol id="icon-user" viewBox="0 0 41 41">
      <path d="M20.5 0C9.179 0 0 9.178 0 20.5S9.179 41 20.5 41 41 31.822 41 20.5 31.821 0 20.5 0zm12.208 34.008a112.182 112.182 0 0 0-5.018-1.865c-2.162-.755-2.188-1.221-2.188-2.827V27.2c.819-.823 1.29-4.356 1.29-4.356.723.183 2.058-1.085 2.461-2.811.405-1.716-.277-3.23-1.001-3.417-.083-.021.251-3.75.251-5.396 0-2.471-.758-4.12-3.083-4.12-.617-1-1.636-1.647-4.424-1.647-2.934 0-4.261 1.647-7.021 1.647-1.22 0-1.479 1.964-1.477 4.083.002 2.22.293 5.421.251 5.433-.724.187-1.406 1.701-1.001 3.417.403 1.726 1.738 2.995 2.461 2.811 0 0 .472 3.532 1.29 4.356v2.116c0 1.606-.027 2.071-2.188 2.827a111.41 111.41 0 0 0-5.018 1.865c-3.858-3.354-6.299-8.263-6.299-13.727 0-10.084 8.302-18.288 18.506-18.288s18.506 8.203 18.506 18.288c0 5.465-2.441 10.373-6.298 13.727z"/>
    </symbol></svg>