<?xml version="1.0" encoding="utf-8"?>
<!-- Generator: Adobe Illustrator 16.0.0, SVG Export Plug-In . SVG Version: 6.00 Build 0)  -->
<!DOCTYPE svg PUBLIC "-//W3C//DTD SVG 1.1//EN" "http://www.w3.org/Graphics/SVG/1.1/DTD/svg11.dtd">
<svg version="1.1" id="Layer_1" xmlns="http://www.w3.org/2000/svg" xmlns:xlink="http://www.w3.org/1999/xlink" x="0px" y="0px"
	 width="93px" height="31.985px" viewBox="0 0 93 31.985" enable-background="new 0 0 93 31.985" xml:space="preserve">
<g>
	<g>
		<path fill="#164477" d="M10.43,12.778l-2.235-1.966C5.187,10.894,2.456,11.399,0,12.327l0.207,1.966l3.063,0.573v13.515
			c-1.132,0.382-2.18,0.847-3.146,1.392l0.083,1.434h13.12l0.083-2.006c-0.773-0.547-1.766-1.024-2.98-1.434V12.778z M7.243,8.642
			c1.655-1.173,2.938-2.662,3.849-4.464C9.823,2.349,8.264,0.957,6.416,0C4.787,1.174,3.421,2.813,2.318,4.915
			C3.697,6.553,5.339,7.795,7.243,8.642z M35.056,16.874c1.656-0.354,2.924-1.126,3.808-2.314c0.883-1.188,1.324-2.45,1.324-3.788
			c0-2.048-0.979-3.727-2.938-5.038c-1.959-1.311-4.511-1.966-7.657-1.966c-5.629,0-10.292,0.109-13.99,0.328l-0.042,2.17
			l2.939,0.41v21.297c-1.297,0.572-2.47,1.215-3.518,1.924l0.248,1.311h15.314c3.338-0.082,5.981-0.799,7.926-2.15
			s2.917-3.146,2.917-5.385c0-1.639-0.552-3.078-1.655-4.32C38.629,18.109,37.07,17.283,35.056,16.874z M25.992,7.945l3.974-0.614
			c0.828,0.246,1.496,0.792,2.007,1.638c0.511,0.847,0.766,1.734,0.766,2.662c0,1.12-0.408,2.068-1.221,2.846
			c-0.814,0.778-2.035,1.167-3.663,1.167h-1.862V7.945z M32.614,26.498c-0.718,0.846-1.752,1.27-3.104,1.27l-0.621-0.041
			l-2.897-0.328v-8.805h3.146c1.296,0.027,2.38,0.532,3.249,1.516c0.869,0.982,1.304,2.115,1.304,3.398
			C33.69,24.654,33.331,25.652,32.614,26.498z M62.104,16.75c-1.174-0.764-2.746-1.577-4.719-2.437
			c-1.973-0.86-3.394-1.598-4.263-2.212s-1.304-1.372-1.304-2.273c0-1.311,0.621-2.334,1.862-3.071
			c1.821,0.055,3.421,0.355,4.802,0.901l1.613,4.997h3.809c0.469-1.911,0.758-4.519,0.869-7.822
			c-2.814-1.038-5.768-1.557-8.857-1.557c-3.284,0-5.961,0.778-8.029,2.334c-2.07,1.557-3.104,3.577-3.104,6.062
			c0,2.812,1.462,5.092,4.388,6.839l1.613,0.9l5.05,2.417c1.876,0.982,2.814,2.157,2.814,3.522s-0.745,2.389-2.235,3.07
			c-1.628-0.054-3.229-0.354-4.801-0.9l-2.69-5.938h-3.353c-0.497,1.829-0.745,4.028-0.745,6.594l0.042,1.229l-0.042,0.082
			c1.352,0.792,3.001,1.407,4.946,1.843c1.945,0.437,3.76,0.655,5.442,0.655c3.2,0,5.802-0.771,7.802-2.313
			c2-1.543,3.001-3.57,3.001-6.082c0-1.584-0.358-2.928-1.076-4.033C64.221,18.45,63.275,17.516,62.104,16.75z M88.736,20.764
			l-1.861,5.939l-7.367,0.695V7.331c1.352-0.573,2.523-1.214,3.518-1.925l-0.248-1.311H68.87l-0.042,2.17l3.188,0.492v21.215
			c-1.297,0.572-2.47,1.215-3.518,1.924l0.248,1.311H92.42c0.387-2.129,0.58-4.982,0.58-8.559v-1.516L88.736,20.764z"/>
	</g>
</g>
</svg>
