<?xml version="1.0" encoding="utf-8"?>
<!-- Generator: Adobe Illustrator 18.0.0, SVG Export Plug-In . SVG Version: 6.00 Build 0)  -->
<!DOCTYPE svg PUBLIC "-//W3C//DTD SVG 1.1//EN" "http://www.w3.org/Graphics/SVG/1.1/DTD/svg11.dtd">
<svg version="1.1" id="Layer_1" xmlns="http://www.w3.org/2000/svg" xmlns:xlink="http://www.w3.org/1999/xlink" x="0px" y="0px"
	 viewBox="0 0 209 100" enable-background="new 0 0 209 100" xml:space="preserve">
<g>
	<defs>
		
			<rect id="SVGID_1_" x="7.602" y="-9.793" transform="matrix(-0.9383 -0.3458 0.3458 -0.9383 180.0731 121.4657)" width="186.535" height="108.931"/>
	</defs>
	<clipPath id="SVGID_2_">
		<use xlink:href="#SVGID_1_"  overflow="visible"/>
	</clipPath>
	<path clip-path="url(#SVGID_2_)" fill="#C59A31" d="M121.243,87.582c-0.179,0.078-0.348,0.189-0.485,0.332
		c-0.258,0.268-0.398,0.647-0.379,1.042c0.017,0.369,0.17,0.691,0.43,0.915c0.286,0.251,0.713,0.335,1.116,0.225
		c0.13-0.035,0.251-0.092,0.36-0.163c0.153-0.051,0.309-0.125,0.452-0.224c0.419-0.285,0.734-0.856,0.535-1.4
		c-0.097-0.267-0.301-0.492-0.6-0.649C122.22,87.415,121.689,87.397,121.243,87.582"/>
	<path clip-path="url(#SVGID_2_)" fill="#C59A31" d="M122.794,95.741c-0.278,0.119-0.528,0.321-0.676,0.592
		c-0.369,0.653-0.109,1.571,0.552,1.963c0.118,0.07,0.237,0.122,0.36,0.151c0,0,0.785,0.138,1.11-0.085
		c0.197-0.088,0.449-0.458,0.449-0.458c0.052-0.082,0.097-0.171,0.133-0.26c0.262-0.691-0.046-1.525-0.69-1.866
		C123.646,95.575,123.184,95.578,122.794,95.741"/>
	<path clip-path="url(#SVGID_2_)" fill="#C59A31" d="M139.231,86.749c-0.068,0.027-0.129,0.062-0.193,0.099
		c-0.321,0.209-0.532,0.575-0.568,0.994c-0.037,0.435,0.115,0.858,0.41,1.134c0.272,0.254,0.659,0.387,1.062,0.362
		c0.421-0.022,0.81-0.209,1.066-0.514c0.125-0.148,0.194-0.335,0.18-0.506c-0.006-0.052-0.018-0.107-0.039-0.153l0.017-0.36
		c-0.096-0.451-0.441-0.849-0.902-1.039C139.909,86.622,139.543,86.615,139.231,86.749"/>
	<path clip-path="url(#SVGID_2_)" fill="#C59A31" d="M143.203,74.852c-0.047,0.02-0.098,0.042-0.139,0.071
		c-0.347,0.205-0.557,0.592-0.552,1.039c-0.001,0.469,0.234,0.893,0.605,1.101c0.336,0.191,0.75,0.208,1.143,0.046
		c0.013-0.001,0.021-0.005,0.029-0.01l0.006,0.03c0.297-0.025,0.574-0.195,0.75-0.471c0.194-0.302,0.243-0.69,0.128-1.009
		c-0.189-0.531-0.761-0.901-1.391-0.905C143.576,74.743,143.379,74.781,143.203,74.852"/>
	<path clip-path="url(#SVGID_2_)" fill="#C59A31" d="M142.426,68.418c-0.371,0.154-0.66,0.435-0.781,0.772
		c-0.122,0.33-0.073,0.678,0.141,0.982l0.034,0.039l0.34,0.355c0.349,0.305,0.805,0.381,1.256,0.227
		c0.46-0.153,0.78-0.51,0.862-0.931c0.082-0.414-0.071-0.85-0.411-1.172c-0.342-0.324-0.794-0.455-1.211-0.349
		C142.576,68.36,142.502,68.386,142.426,68.418"/>
	<path clip-path="url(#SVGID_2_)" fill="#C59A31" d="M124.338,28.893c-0.26,0.107-0.483,0.302-0.631,0.546
		c-0.177,0.288-0.224,0.607-0.136,0.907c0.109,0.367,0.448,0.645,0.872,0.706c0.369,0.05,0.713-0.086,0.901-0.367
		c0.253-0.219,0.418-0.56,0.425-0.911c0.009-0.406-0.187-0.735-0.521-0.889c-0.199-0.089-0.427-0.11-0.668-0.066
		C124.496,28.836,124.417,28.861,124.338,28.893"/>
	<path clip-path="url(#SVGID_2_)" fill="#C59A31" d="M124.403,23.845c-0.363,0.151-0.678,0.447-0.846,0.828
		c-0.167,0.372-0.167,0.817-0.004,1.199c0.138,0.321,0.38,0.559,0.683,0.669c0.714,0.259,1.684-0.591,1.684-0.591
		c0.042-0.041,0.083-0.086,0.119-0.133c0.23-0.276,0.327-0.625,0.282-0.956c-0.093-0.625-0.679-1.122-1.338-1.134
		C124.786,23.726,124.586,23.764,124.403,23.845"/>
	<path clip-path="url(#SVGID_2_)" fill="#C59A31" d="M123.306,8.638c-0.159,0.068-0.311,0.165-0.452,0.288
		c-0.686,0.61-0.791,1.726-0.22,2.387c0.249,0.287,0.627,0.462,1.036,0.489c0.135,0.053,0.29,0.082,0.453,0.076
		c0.431-0.015,0.834-0.24,1.044-0.58c0.393-0.616,0.222-1.378-0.069-1.884c-0.302-0.529-0.75-0.85-1.229-0.873
		C123.679,8.527,123.487,8.561,123.306,8.638"/>
	<path clip-path="url(#SVGID_2_)" fill="#C59A31" d="M118.552,2.716c-0.595,0.248-1.537,0.765-1.576,1.714
		c-0.013,0.285,0.062,0.578,0.219,0.856c0.331,0.602,0.989,1.011,1.675,1.041c0.682,0.036,1.377-0.31,1.767-0.876l-0.007-0.006
		c0.119-0.141,0.214-0.301,0.279-0.478c0.204-0.544,0.119-1.202-0.232-1.805c-0.222-0.379-0.493-0.616-0.816-0.703
		c-0.368-0.09-0.72,0.033-0.973,0.126C118.802,2.617,118.686,2.657,118.552,2.716"/>
	<path clip-path="url(#SVGID_2_)" fill="#C59A31" d="M99.578,8.096c-0.072,0.031-0.147,0.068-0.212,0.114
		c-0.408,0.258-0.663,0.73-0.69,1.259c-0.024,0.527,0.188,1.021,0.564,1.321c0.379,0.294,0.91,0.39,1.414,0.238
		c0.495-0.143,0.887-0.486,1.055-0.924c0.093-0.171,0.288-0.693-0.236-1.437C101.043,8.056,100.221,7.826,99.578,8.096"/>
	<path clip-path="url(#SVGID_2_)" fill="#C59A31" d="M194.108,35.96c3.304-0.508,6.497-1.784,9.234-3.695
		c0.765-0.536,1.521-1.154,1.893-2.049c0.383-0.92,0.186-2.245-0.786-2.772c-0.814-0.442-1.769-0.136-2.417,0.132
		c-0.11,0.047-0.216,0.095-0.308,0.135l-3.23,1.437c-1.406,0.626-2.857,1.268-4.178,2.116c-0.929,0.6-1.602,1.176-2.115,1.821
		c-0.566,0.717-0.953,1.162-1.582,1.752l-10.874,3.236c-1.964,0.608-3.943,1.215-5.931,1.822c0.155-0.106,0.294-0.208,0.448-0.313
		c1.886-1.323,3.834-2.693,5.123-3.83c1.155-1.013,2.167-2.152,3.095-3.355c0.287-0.232,0.519-0.454,0.733-0.669
		c0.358-0.353,0.668-0.662,1.2-0.919c2.166-1.052,3.733-2.923,5.275-4.91c0.565-0.731,1.273-1.643,1.621-2.704
		c0.392-1.186,0.226-2.429-0.424-3.24l-0.184-0.229l-0.263,0.133c-1.455,0.725-2.604,1.948-3.622,3.031
		c-1.117,1.189-2.268,2.418-3.149,3.855c-0.97,1.579-1.442,3.201-1.393,4.709c-1.002,1.355-2.098,2.636-3.366,3.749
		c-1.263,1.11-3.197,2.467-5.065,3.781c-0.798,0.559-1.532,1.081-2.212,1.579c-10.166,3.089-20.546,6.084-30.977,8.326
		c-6.589,1.415-13.304,2.51-20.103,3.357c2.495-2.007,5.001-4.02,7.479-6.097l0.031,0.136c1.337-0.294,2.766-0.258,4.144-0.225
		c1.556,0.044,3.167,0.079,4.714-0.34c1.437-0.396,2.717-1.154,4.012-1.967c5.872-3.681,12.948-8.918,15.599-16.766
		c0.655-1.93,1.008-3.965,1.355-5.926c0.389-2.215,0.788-4.506,1.61-6.614l0.427-1.084l-0.969,0.649
		c-2.729,1.819-5.951,2.968-9.067,4.077c-4.206,1.49-8.55,3.039-11.722,6.268c-1.605,1.631-2.821,3.623-3.888,5.377
		c-1.949,3.194-3.529,5.883-4.616,8.931c-0.721,2.032-1.165,4.146-1.353,6.288c-3.015,2.548-6.077,5.019-9.119,7.459
		c-14.475,1.722-29.376,2.194-44.533,1.381c4.403-1.163,8.358-3.858,12.593-6.993c2.184-1.616,4.879-3.62,7.222-5.862l0.048,0.044
		c2.507-2.571,5.972-4.488,10.29-5.698c2.402-0.67,4.884-1.068,7.36-1.374c2.67,0.92,5.668,0.886,8.308-0.12
		c0.613-0.229,1.366-0.586,1.797-1.268c0.421-0.662,0.478-1.551,0.18-2.652c-0.102-0.367-0.234-0.738-0.518-1.047
		c-0.551-0.601-1.489-0.713-2.701-0.364c-0.454,0.13-0.917,0.333-1.357,0.518c-1.827,0.762-3.516,2.043-4.793,3.545
		c-0.309,0.368-1.527,0.552-1.527,0.552c-1.988,0.487-4.73,0.772-7.115,1.439c-1.236,0.346-2.234,0.815-3.329,1.273
		c-1.119,0.466-2.14,1.009-3.107,1.586c0.561-0.652,1.079-1.376,1.554-2.169c0.773-0.983,1.538-1.973,2.287-2.952
		c0.634-0.834,1.272-1.67,1.914-2.493c1.093-1.401,2.217-2.776,3.335-4.156c1.82-2.229,3.667-4.497,5.384-6.863
		c1.314-1.232,2.503-2.174,3.762-3.168c0.776-0.617,1.579-1.253,2.442-1.984c0.445-0.375,0.945-0.838,1.26-1.439
		c0.359-0.682,0.411-1.447,0.134-2.043c-0.409-0.896-1.422-1.269-2.242-1.242c-0.481,0.015-0.94,0.149-1.359,0.323
		c-0.348,0.144-0.671,0.323-0.948,0.487c-1.288,0.768-2.089,1.567-2.533,2.518c-0.331,0.708-0.442,1.48-0.531,2.277
		c-0.135,1.168-0.237,2.34-0.341,3.51c-1.777,2.471-3.7,4.84-5.591,7.166c-1.126,1.381-2.254,2.763-3.345,4.163
		c-0.648,0.824-1.284,1.664-1.922,2.501c-0.049,0.066-0.1,0.132-0.151,0.194c0.472-1.213,0.891-2.524,1.237-3.968
		c0.416-1.718,0.73-3.482,1.028-5.187c0.096-0.523,0.187-1.047,0.283-1.579l2.315-4.18c0.721-1.122,0.992-2.335,0.736-3.399
		c-0.314-1.321-1.518-2.285-2.736-2.196c-0.294,0.021-0.569,0.101-0.827,0.208c-0.382,0.158-0.716,0.383-0.992,0.588
		c-0.345,0.254-0.778,0.61-1.052,1.091c-0.615,1.096-0.217,2.375,0.078,3.041c0.168,0.389,0.377,0.759,0.585,1.131
		c0.258,0.458,0.501,0.894,0.675,1.358c0.202,0.558,0.509,1.644,0.5,2.218c-0.1,0.53-0.193,1.063-0.289,1.591
		c-0.295,1.695-0.605,3.449-1.013,5.141c-0.666,2.754-1.558,5.042-2.685,6.921c-1.503,1.902-3.067,3.768-4.797,5.447
		c-2.179,2.114-4.518,3.887-7.349,5.984c-5.046,3.731-9.661,6.868-15.094,7.402l0,0.008c-10.063-0.644-20.231-1.829-30.45-3.574
		c2.86-1.45,4.955-3.67,7.31-6.111c0.946-0.231,1.692-0.211,2.801-0.128c3.863,0.287,7.667-0.545,11.348-1.347
		c1.473-0.32,3.005-0.647,4.407-1.322c1.983-0.948,3.561-2.474,5.095-3.951c2.451-2.367,4.985-4.82,7.046-7.638
		c1.176-1.619,2.206-3.368,3.197-5.062c0.334-0.566,0.666-1.13,1.005-1.693c2.725-4.527,5.875-8.842,9.352-12.82l0.764-0.872
		l-1.124,0.277c-3.014,0.74-6.157,1.176-9.196,1.593c-3.777,0.523-7.681,1.062-11.399,2.197c-1.1,0.334-2.172,0.724-3.225,1.161
		c-7.657,3.194-13.908,9.039-17.071,16.101c-1.99,4.445-3.378,9.082-3.92,13.081c-2.953,2.554-5.925,4.694-9.378,5.982l0.081,0.069
		c-11.682-2.113-23.428-4.941-35.152-8.483l-0.377-0.114l-0.337,1.52l0.241,0.136c9.731,5.277,23.566,7.456,34.682,9.211
		l0.324,0.049c12.196,3.534,17.923,9.888,19.308,11.631l-0.009,0.058c-0.663,5.372-0.519,12.951,3.94,18.538
		c1.315,1.648,2.89,2.989,4.67,4.451c2.788,2.292,5.557,4.444,8.801,5.608c0.821,0.292,1.672,0.524,2.493,0.747
		c1.136,0.306,2.314,0.623,3.39,1.107c1.465,0.663,2.791,1.663,4.074,2.623l0.49-0.537c-1.025-1.141-1.67-2.752-1.901-4.789
		c-0.133-1.22-0.124-2.481-0.112-3.702c0.007-0.576,0.012-1.149,0.001-1.724c-0.114-7.355-2.804-14.069-7.39-18.419
		c-5.301-5.028-12.045-6.683-17.741-4.397c-0.08-0.114-0.168-0.222-0.244-0.331l-0.075,0.051c-2.959-4.149-6.972-7.463-11.536-9.652
		c4.702,0.703,10.288,1.492,15.178,2.062c11.088,1.294,22.102,1.808,33.136,1.547c4.88,1.404,9.596,3.451,14.021,6.018
		c2.536,2.411,4.545,6.007,5.144,9.17c0.216,1.128,0.298,2.365,0.392,3.516c0.114,1.328,0.207,2.769,0.498,4.072
		c-0.007,0.001-0.033,0.063-0.055,0.114l-0.04,0.004c-0.114,0.224-0.254,0.439-0.407,0.664c-0.321,0.486-0.656,0.988-0.698,1.649
		c-0.038,0.671,0.438,1.51,0.825,2.186c0.087,0.154,0.167,0.299,0.237,0.426c0.425,0.819,1.255,1.281,1.925,1.652
		c0.282,0.159,0.606,0.337,0.989,0.386c0.617,0.074,1.279-0.24,1.682-0.812c0.313-0.441,0.478-1.01,0.495-1.692
		c0.031-1.475-0.648-2.979-1.825-4.028c-0.621-0.557-1.529-0.97-2.356-0.907c-0.271-1.228-0.391-2.526-0.506-3.869
		c-0.098-1.168-0.204-2.381-0.423-3.543c-0.485-2.562-1.854-5.372-3.678-7.681c6.816,4.328,12.834,9.934,17.517,16.436
		c0.062,1.258,0.306,2.882,0.87,4.145c0.576,1.299,1.895,2.568,3.543,2.47c0.701-0.043,1.305-0.361,1.617-0.858
		c0.38-0.599,0.343-1.411-0.115-2.346c-0.907-1.869-2.645-3.316-4.649-3.876c-0.207-0.061-0.473-0.079-0.737-0.057
		c-4.502-6.221-10.201-11.641-16.661-15.9c2.6,0.697,5.308,1.038,7.961,1.36c2.681,0.33,5.417,0.667,8.011,1.389
		c1.42,2.602,4.934,4.944,8.074,4.346c0.841-0.162,1.434-0.497,1.76-1.001c0.293-0.456,0.378-1.06,0.249-1.745
		c-0.435-2.255-2.714-3.97-4.778-3.594c-0.435,0.079-0.829,0.173-1.23,0.263c-0.298,0.075-0.603,0.14-0.927,0.204
		c-0.199,0.044-0.479,0.075-0.759,0.109c-0.314,0.038-0.62,0.075-0.839,0.121c-0.294,0.059-0.534,0.121-0.769,0.22
		c-0.201,0.084-0.402,0.204-0.62,0.359c-2.629-0.728-5.389-1.065-8.086-1.395c-3.636-0.447-7.385-0.913-10.752-2.319
		c-0.137-0.083-0.28-0.161-0.42-0.242c-0.021-0.02-0.04-0.04-0.058-0.06l-0.016,0.019c-3.871-2.245-7.971-4.065-12.2-5.441
		c14.642-0.483,29.323-2.331,44.264-5.565c2.804,0.161,5.543,0.767,8.145,1.824c0.313,0.126,0.618,0.287,0.929,0.427
		c1.208,3.24,2.709,7.261,4.729,10.843c2.199,3.891,4.819,6.915,7.79,8.983c4.377,3.048,9.691,4.193,14.827,5.302
		c3.017,0.652,6.13,1.323,9.032,2.373l0.69,0.249l-1.745-5.626c-0.396-1.271-0.803-2.586-1.367-3.825
		c-0.549-1.203-1.294-2.451-2.349-3.932c-2.797-3.939-6.186-7.394-10.07-10.266c-3.471-2.567-6.781-4.241-10.113-5.124
		c-3.862-1.015-7.776-0.874-11.061,0.384c-0.341-0.151-0.676-0.329-1.016-0.467c-1.991-0.807-4.062-1.354-6.17-1.656
		c1.54-0.349,3.081-0.695,4.631-1.069c3.704-0.903,7.441-1.908,11.056-2.878l0.099-0.026c3.022-0.812,7.91-2.342,14.513-4.537
		c3.271,0.099,7.129,0.983,10.504,2.367l0.17,0.227c0.817,1.122,1.749,2.393,2.767,3.349c0.34,0.321,0.721,0.656,1.149,0.928
		c1.722,1.092,3.968,0.952,5.607,0.848c0.211-0.012,0.503-0.041,0.77-0.16c0.487-0.246,0.767-0.813,0.759-1.521
		c-0.006-1.146-0.66-2.327-1.744-3.156c-0.893-0.682-1.923-1.077-3.199-1.463c-1.75-0.528-3.954-1.004-5.846-0.216
		c-0.195,0.08-0.386,0.177-0.575,0.285l-0.028,0.018c-2.735-1.07-5.749-1.818-8.507-2.114c2.274-0.764,4.719-1.59,7.368-2.498
		c0.538-0.183,0.866-0.298,0.934-0.317c1.029-0.333,2.036-0.728,3.008-1.114l3.629-1.428
		C191.107,36.336,192.824,36.155,194.108,35.96 M153.544,55.776c-0.33-0.136,0.266-0.527,0.509-0.43
		c1.119,0.45,2.193,0.983,3.237,1.557c0.081,0.002,0.142,0.027,0.163,0.087c0.101,0.057,0.197,0.126,0.298,0.183
		c3.443-1.301,7.094-0.817,10.584,0.133c0.328,0.086-0.262,0.496-0.509,0.428c-3.152-0.858-6.477-1.346-9.619-0.276
		c1.666,0.98,3.263,2.068,4.804,3.235c3.496-0.631,6.754,0.933,10.246,0.91c0.478-0.002,0.093,0.469-0.209,0.473
		c-3.242,0.017-6.334-1.388-9.558-1.009c1.536,1.184,3.043,2.409,4.551,3.637c0.259,0.208,0.52,0.412,0.78,0.619
		c0.049-0.01,0.087-0.012,0.126-0.003c3.141,0.786,6.964-0.383,9.616,1.929c0.23,0.199-0.404,0.545-0.614,0.36
		c-2.264-1.974-5.488-1.289-8.308-1.636c1.948,1.512,3.943,2.967,5.892,4.472c0.154-0.045,0.301-0.039,0.338,0.051
		c0.06-0.026,0.119-0.056,0.181-0.06c1.538-0.09,3.038,0.179,4.485,0.687c0.33,0.115-0.263,0.516-0.508,0.429
		c-1.264-0.444-2.567-0.682-3.906-0.645c2.297,1.797,4.52,3.675,6.503,5.838c0.212,0.23-0.435,0.56-0.614,0.36
		c-1.863-2.028-3.935-3.804-6.078-5.494c0.192,1.006,0.786,1.993,1.497,2.648c0.226,0.208-0.414,0.551-0.615,0.361
		c-0.939-0.865-1.649-2.26-1.615-3.58c-2.011-1.554-4.068-3.054-6.077-4.62c0.847,2.299,0.956,4.821,2.386,6.904
		c0.147,0.217-0.513,0.514-0.679,0.27c-1.628-2.372-1.541-5.312-2.783-7.848c-0.023-0.051-0.001-0.104,0.03-0.153
		c-0.061-0.051-0.123-0.099-0.186-0.145c-1.709-1.381-3.404-2.788-5.143-4.124c0.829,2.803,1.246,5.712,2.75,8.27
		c0.136,0.233-0.53,0.527-0.679,0.27c-1.644-2.797-1.986-6.012-2.988-9.049c-0.017-0.047,0.015-0.093,0.039-0.139
		c-1.376-1.021-2.776-2.009-4.255-2.876c0.472,2.661,1.118,5.24,2.139,7.757c0.104,0.264-0.573,0.537-0.68,0.273
		c-1.111-2.746-1.79-5.564-2.268-8.482C155.754,56.77,154.675,56.229,153.544,55.776 M58.64,65.346
		c-0.133-0.238,0.613-0.498,0.756-0.24c0.721,1.285,1.892,2.471,3.027,3.579c0.083,0.004,0.148,0.034,0.16,0.106
		c0.001,0.014,0.004,0.028,0.009,0.039c0.111-0.103,0.291-0.191,0.412-0.18c3.465,0.411,6.94,0.908,10.436,0.757
		c0.478-0.021,0.092,0.456-0.209,0.47c-3.461,0.147-6.9-0.32-10.329-0.732c0.732,0.712,1.47,1.409,2.111,2.105
		c0.42,0.458,0.857,0.891,1.289,1.334c0.096-0.06,0.21-0.099,0.294-0.085c2.779,0.438,5.609,1.421,8.448,0.967
		c0.476-0.075,0.334,0.389-0.032,0.444c-2.793,0.445-5.519-0.366-8.252-0.854c1.254,1.281,2.52,2.548,3.749,3.853
		c0.241,0.25,0.471,0.503,0.707,0.758c0.117-0.062,0.253-0.093,0.341-0.064c1.183,0.411,2.397,0.223,3.61,0.345
		c1.225,0.12,2.395,0.589,3.621,0.753c0.419,0.054-0.11,0.497-0.372,0.463c-1.448-0.188-2.81-0.742-4.273-0.781
		c-0.826-0.018-1.634-0.014-2.429-0.179c1.186,1.306,2.325,2.661,3.345,4.096c0.023,0.035,0.047,0.072,0.073,0.108
		c1.742-0.188,3.393,0.727,5.128,0.489c0.474-0.066,0.083,0.432-0.205,0.468c-1.577,0.219-3.073-0.509-4.627-0.517
		c1.395,2.107,2.442,4.421,4.162,6.309c0.214,0.235-0.432,0.563-0.616,0.365c-1.606-1.766-2.603-3.88-3.877-5.878
		c-1.076-1.691-2.365-3.258-3.714-4.757c0.001,2.028,0.089,4.043,0.309,6.064c0.029,0.261-0.659,0.481-0.693,0.157
		c-0.241-2.23,0.99-5.792-1.561-8.323c-1.019-1.005-2.003-2.051-3.005-3.069c0.315,2.607,0.196,5.233,0.287,7.861
		c0.008,0.267-0.688,0.475-0.696,0.159c-0.102-2.906,0.097-5.815-0.379-8.697c-0.007-0.04,0.024-0.073,0.041-0.11
		c-0.675-0.696-1.368-1.394-2.023-2.108c-0.303-0.331-0.646-0.661-0.972-0.984c0.234,2.728-0.624,5.448-1.005,8.136
		c-0.037,0.271-0.811,0.425-0.77,0.129c0.418-2.992,1.291-6.125,0.681-9.165l0.001-0.003C60.262,67.743,59.406,66.713,58.64,65.346
		 M53.967,37.777c0.995-2.186,1.007-4.696,0.961-7.053c-0.009-0.269,0.688-0.475,0.696-0.158c0.037,1.885,0.026,3.85-0.461,5.684
		c0.963-1.213,1.966-2.405,3.131-3.463c0.302-0.273,0.618-0.516,0.931-0.778c-0.091-0.008-0.166-0.047-0.16-0.143
		c0.201-3.158,0.744-6.519,2.171-9.374c0.116-0.229,0.823-0.351,0.664-0.037c-1.386,2.776-1.918,6.011-2.122,9.09
		c1.58-1.281,3.251-2.419,4.972-3.492c0.351-3.639,2.024-6.977,3.918-10.052c0.137-0.214,0.842-0.326,0.666-0.034
		c-1.823,2.948-3.437,6.145-3.85,9.624c0.657-0.399,1.318-0.787,1.987-1.168c2.119-1.209,5.571-4.256,5.633-4.431
		c1.069-2.96,2.95-5.331,5.265-7.422c0.225-0.203,0.828-0.125,0.478,0.196c-2.22,2.005-3.992,4.272-5.033,7.088
		c0.755-0.568,1.516-1.125,2.312-1.639c3.484-2.252,7.112-3.597,9.698-7.039c0.158-0.214,0.844-0.258,0.59,0.082
		c-2.052,2.728-4.797,4.449-7.778,6.021c-1.984,1.045-3.738,2.382-5.49,3.73c3.423,0.166,6.952-1.188,9.695-3.177
		c0.237-0.172,0.86-0.082,0.476,0.197c-3.046,2.21-6.922,3.692-10.724,3.445c-0.017-0.001-0.027-0.008-0.039-0.01
		c-1.017,0.78-2.038,1.553-3.112,2.265c-0.528,0.346-1.055,0.676-1.588,1.005c3.628,1.31,8.302,0.922,11.587-1.049
		c0.31-0.189,0.747,0.05,0.328,0.302c-3.557,2.136-8.629,2.6-12.537,1.142c-0.636,0.391-1.271,0.773-1.905,1.163
		c-0.063,0.069-0.15,0.123-0.253,0.157c-1.484,0.909-2.947,1.84-4.343,2.903c4.354,1.134,9.006,1.357,13.393,0.319
		c0.479-0.111,0.326,0.359-0.03,0.445c-4.558,1.078-9.373,0.84-13.888-0.341c-0.316,0.251-0.63,0.496-0.934,0.761
		c-1.6,1.397-2.899,3.028-4.19,4.664c1.67-0.432,3.355-0.553,5.081-0.683c1.909-0.142,3.84,0.146,5.742-0.104
		c0.472-0.064,0.081,0.433-0.211,0.471c-1.706,0.222-3.411-0.044-5.124,0.056c-1.959,0.111-3.926,0.241-5.82,0.774
		c-0.038,0.009-0.046-0.003-0.077,0c-0.019,0.026-0.042,0.055-0.065,0.082c-0.014,0.031-0.016,0.061-0.034,0.092
		c-0.025,0.05-0.077,0.095-0.141,0.129c-0.896,1.13-1.809,2.242-2.839,3.271c-0.217,0.215-0.812,0.142-0.475-0.195
		C52.156,40.057,53.07,38.923,53.967,37.777 M134.529,33.595c-0.056-0.289,0.628-0.528,0.682-0.269
		c0.441,2.316,0.204,4.625-0.131,6.935c0.833-0.779,1.679-1.548,2.488-2.353c0.228-0.229,0.443-0.472,0.669-0.705
		c-0.011-0.021-0.038-0.025-0.031-0.052c0.588-3.128,1.193-6.237,1.012-9.432c-0.014-0.268,0.679-0.477,0.696-0.158
		c0.17,2.987-0.351,5.899-0.9,8.823c0.205-0.225,0.401-0.457,0.603-0.683c0.008-0.014,0.028-0.033,0.047-0.051
		c1.151-1.297,2.276-2.619,3.419-3.922c-0.016-0.021-0.047-0.028-0.037-0.064c0.673-2.679,1.196-5.375,1.253-8.146
		c0.004-0.27,0.705-0.472,0.699-0.157c-0.054,2.517-0.499,4.977-1.084,7.417c0.234-0.261,0.463-0.528,0.701-0.792
		c0.02-0.054,0.069-0.107,0.142-0.156c1.389-1.556,2.763-3.125,4.077-4.748c0.278-1.815,0.723-3.697,1.899-5.141
		c0.164-0.202,0.857-0.244,0.59,0.083c-0.944,1.154-1.386,2.617-1.661,4.083c1.665-1.992,3.625-3.547,5.38-5.467
		c0.171-0.193,0.872-0.227,0.589,0.081c-1.855,2.035-3.978,3.666-5.703,5.837c1.389-0.431,2.691-1.075,3.897-1.901
		c0.303-0.212,0.728,0.026,0.328,0.301c-1.426,0.977-2.993,1.717-4.658,2.169c-0.02,0.113-0.041,0.226-0.055,0.339
		c-0.027,0.171-0.31,0.295-0.508,0.293c-0.992,1.202-2.014,2.386-3.047,3.548c2.421-1.062,4.932-1.86,7.503-2.507
		c0.476-0.116,0.323,0.357-0.031,0.448c-2.798,0.701-5.528,1.58-8.138,2.806c-0.318,0.359-0.638,0.722-0.963,1.082
		c-1.076,1.202-2.127,2.446-3.19,3.67c2.823-1.392,6.245-1.508,9.316-1.673c0.477-0.026,0.086,0.454-0.209,0.47
		c-3.293,0.178-7.18,0.205-9.964,2.185c-0.551,0.616-1.104,1.223-1.67,1.818c-1.011,1.05-2.092,2.022-3.151,3.015
		c2.314-1.135,4.82-1.658,7.366-2.053c0.482-0.073,0.335,0.389-0.03,0.447c-2.654,0.408-5.305,0.901-7.677,2.217
		c-0.116,0.064-0.236,0.06-0.336,0.034c-0.685,0.659-1.36,1.336-1.978,2.063c-0.17,0.202-0.863,0.242-0.59-0.082
		c0.675-0.796,1.412-1.527,2.163-2.246C134.674,38.539,135.006,36.071,134.529,33.595"/>
</g>
</svg>
