<?xml version="1.0" encoding="utf-8"?>
<!-- Generator: Adobe Illustrator 18.0.0, SVG Export Plug-In . SVG Version: 6.00 Build 0)  -->
<!DOCTYPE svg PUBLIC "-//W3C//DTD SVG 1.1//EN" "http://www.w3.org/Graphics/SVG/1.1/DTD/svg11.dtd">
<svg version="1.1" id="Layer_1" xmlns="http://www.w3.org/2000/svg" xmlns:xlink="http://www.w3.org/1999/xlink" x="0px" y="0px"
	 viewBox="0 0 40 48" enable-background="new 0 0 40 48" xml:space="preserve">
<g>
	<defs>
		<rect id="SVGID_1_" width="40" height="48"/>
	</defs>
	<clipPath id="SVGID_2_">
		<use xlink:href="#SVGID_1_"  overflow="visible"/>
	</clipPath>
	<g clip-path="url(#SVGID_2_)">
		<defs>
			<rect id="SVGID_3_" width="40" height="48"/>
		</defs>
		<clipPath id="SVGID_4_">
			<use xlink:href="#SVGID_3_"  overflow="visible"/>
		</clipPath>
		<path clip-path="url(#SVGID_4_)" fill="#4F446C" d="M39.7,11.3l-11-11C28.5,0.1,28.3,0,28,0H3C1.3,0,0,1.3,0,3v42c0,1.7,1.3,3,3,3
			h34c1.7,0,3-1.3,3-3V12C40,11.7,39.9,11.5,39.7,11.3 M38,45c0,0.6-0.4,1-1,1H3c-0.6,0-1-0.4-1-1V3c0-0.6,0.4-1,1-1h24v7.6
			c0,1.9,1.5,3.4,3.4,3.4H38V45z"/>
		<rect x="11" y="31" clip-path="url(#SVGID_4_)" fill="#61CCF5" width="4" height="3"/>
		<rect x="17" y="24" clip-path="url(#SVGID_4_)" fill="#61CCF5" width="4" height="10"/>
		<rect x="23" y="27" clip-path="url(#SVGID_4_)" fill="#61CCF5" width="4" height="7"/>
		<rect x="29" y="20" clip-path="url(#SVGID_4_)" fill="#61CCF5" width="4" height="14"/>
		<polygon clip-path="url(#SVGID_4_)" fill="#4F446C" points="33,35 9,35 9,20 7,20 7,37 33,37 		"/>
	</g>
</g>
</svg>
