<?xml version="1.0" encoding="utf-8"?>
<!-- Generator: Adobe Illustrator 16.0.0, SVG Export Plug-In . SVG Version: 6.00 Build 0)  -->
<!DOCTYPE svg PUBLIC "-//W3C//DTD SVG 1.1//EN" "http://www.w3.org/Graphics/SVG/1.1/DTD/svg11.dtd">
<svg version="1.1" id="Layer_1" xmlns="http://www.w3.org/2000/svg" xmlns:xlink="http://www.w3.org/1999/xlink" x="0px" y="0px"
	 width="63px" height="61px" viewBox="0 0 63 61" enable-background="new 0 0 63 61" xml:space="preserve">
<g>
	<g>
		<path d="M61.5,42.571h-7.071V35.5c0-0.828-0.672-1.5-1.5-1.5H39V1.5C39,0.672,38.328,0,37.5,0h-36C0.672,0,0,0.672,0,1.5v58
			C0,60.328,0.672,61,1.5,61h60c0.828,0,1.5-0.672,1.5-1.5V44.071C63,43.243,62.328,42.571,61.5,42.571z M36,58H3V3h33V58z M60,58
			H39V37h12.429v7.071c0,0.828,0.672,1.5,1.5,1.5H60V58z M8.5,13.045h22c0.828,0,1.5-0.672,1.5-1.5s-0.672-1.5-1.5-1.5h-22
			c-0.828,0-1.5,0.672-1.5,1.5S7.672,13.045,8.5,13.045z M8.5,22.502h22c0.828,0,1.5-0.672,1.5-1.5s-0.672-1.5-1.5-1.5h-22
			c-0.828,0-1.5,0.672-1.5,1.5S7.672,22.502,8.5,22.502z M8.5,31.958h22c0.828,0,1.5-0.672,1.5-1.5s-0.672-1.5-1.5-1.5h-22
			c-0.828,0-1.5,0.672-1.5,1.5S7.672,31.958,8.5,31.958z M8.5,41.415h22c0.828,0,1.5-0.672,1.5-1.5s-0.672-1.5-1.5-1.5h-22
			c-0.828,0-1.5,0.672-1.5,1.5S7.672,41.415,8.5,41.415z M8.5,50.872h22c0.828,0,1.5-0.672,1.5-1.5s-0.672-1.5-1.5-1.5h-22
			c-0.828,0-1.5,0.672-1.5,1.5S7.672,50.872,8.5,50.872z"/>
	</g>
</g>
</svg>
