<?xml version="1.0" encoding="utf-8"?>
<!-- Generator: Adobe Illustrator 16.0.0, SVG Export Plug-In . SVG Version: 6.00 Build 0)  -->
<!DOCTYPE svg PUBLIC "-//W3C//DTD SVG 1.1//EN" "http://www.w3.org/Graphics/SVG/1.1/DTD/svg11.dtd">
<svg version="1.1" id="Layer_1" xmlns="http://www.w3.org/2000/svg" xmlns:xlink="http://www.w3.org/1999/xlink" x="0px" y="0px"
	 width="99px" height="99px" viewBox="0 0 99 99" enable-background="new 0 0 99 99" xml:space="preserve">
<path d="M73.836,32.111c-2.935-2.936-6.852-4.552-11.028-4.552c-4.178,0-8.095,1.616-11.029,4.552L49.5,34.39l-2.279-2.278
	c-2.935-2.936-6.852-4.552-11.028-4.552c-4.178,0-8.095,1.616-11.029,4.552c-6.081,6.081-6.081,15.977,0,22.058l23.276,23.276
	c0.281,0.281,0.663,0.439,1.061,0.439s0.779-0.158,1.061-0.439l23.275-23.276c2.936-2.935,4.552-6.852,4.552-11.029
	C78.388,38.963,76.771,35.046,73.836,32.111z M71.715,52.048L49.5,74.264L27.284,52.048c-4.911-4.912-4.911-12.903,0-17.815
	c2.368-2.368,5.532-3.673,8.908-3.673c3.375,0,6.539,1.305,8.907,3.673l3.34,3.339c0.586,0.586,1.535,0.586,2.121,0l3.339-3.339
	c2.368-2.368,5.532-3.673,8.908-3.673c3.375,0,6.539,1.305,8.907,3.673s3.673,5.532,3.673,8.907
	C75.388,46.516,74.083,49.68,71.715,52.048z M49.5,11.782c0.828,0,1.5-0.672,1.5-1.5V1.5C51,0.672,50.328,0,49.5,0S48,0.672,48,1.5
	v8.782C48,11.11,48.672,11.782,49.5,11.782z M19.155,21.277c0.293,0.293,0.677,0.439,1.061,0.439s0.768-0.146,1.061-0.439
	c0.586-0.585,0.586-1.535,0-2.121l-3.104-3.105c-0.586-0.586-1.535-0.586-2.121,0c-0.586,0.585-0.586,1.535,0,2.121L19.155,21.277z
	 M19.155,77.724l-3.104,3.104c-0.586,0.586-0.586,1.535,0,2.121c0.293,0.293,0.677,0.439,1.061,0.439s0.768-0.146,1.061-0.439
	l3.104-3.104c0.586-0.586,0.586-1.535,0-2.121S19.741,77.138,19.155,77.724z M79.844,77.724c-0.586-0.586-1.535-0.586-2.121,0
	s-0.586,1.536,0,2.121l3.105,3.104c0.293,0.293,0.677,0.439,1.061,0.439s0.768-0.146,1.061-0.439c0.586-0.586,0.586-1.536,0-2.121
	L79.844,77.724z M80.828,16.051l-3.105,3.105c-0.586,0.586-0.586,1.535,0,2.121c0.293,0.293,0.677,0.439,1.061,0.439
	s0.768-0.146,1.061-0.439l3.105-3.105c0.586-0.586,0.586-1.535,0-2.121S81.414,15.465,80.828,16.051z M10.281,48H1.5
	C0.672,48,0,48.672,0,49.5S0.672,51,1.5,51h8.781c0.828,0,1.5-0.672,1.5-1.5S11.109,48,10.281,48z M49.5,87.218
	c-0.828,0-1.5,0.672-1.5,1.5V97.5c0,0.828,0.672,1.5,1.5,1.5s1.5-0.672,1.5-1.5v-8.782C51,87.89,50.328,87.218,49.5,87.218z
	 M97.5,48h-8.782c-0.828,0-1.5,0.672-1.5,1.5s0.672,1.5,1.5,1.5H97.5c0.828,0,1.5-0.672,1.5-1.5S98.328,48,97.5,48z"/>
</svg>
